<svg xmlns="http://www.w3.org/2000/svg" height="512" viewBox="0 0 512.326 512.326" width="512"><path d="M512.163 29.237l.164-28.698-115.285 41.798C355.204 14.687 306.724.124 256.163.124s-99.041 14.563-140.878 42.214L0 .539l.164 28.698c.23 40.495 14.574 71.216 35.26 97.164C12.329 165.628.164 210.273.164 256.123v141.695l15.245 3.731c97.329 23.825 170.632 56.084 230.688 101.523l12.067 9.13 12.067-9.13c61.362-46.426 133.394-78.686 226.688-101.523l15.245-3.731V256.124c0-45.85-12.165-90.495-35.26-129.722 20.685-25.949 35.028-56.669 35.259-97.165zM121.292 87.063l8.578-6.193c36.92-26.657 80.592-40.747 126.293-40.747s89.373 14.09 126.293 40.747l8.578 6.193L468.02 59.15c-11.221 39.679-43.822 66.704-80.474 97.088-34.556 28.646-70.277 58.268-92.872 102.172l-38.512 66.02-38.512-66.02c-22.595-43.905-58.316-73.526-92.872-102.172-36.651-30.383-69.252-57.408-80.472-97.087zm191.084 181.185l-.213-.124.226.115zm38.644-22.767a25.9 25.9 0 0 0 17.352 6.642c14.236 0 25.792-11.442 25.991-25.63 1.812 4.423 2.8 9.16 2.8 13.979 0 21.493-18.222 39.651-39.791 39.651-8.737 0-17.27-3.253-24.167-8.889 5.176-9.139 11.193-17.677 17.815-25.753zm-233.057-18.987c.199 14.188 11.755 25.63 25.99 25.63 6.669 0 12.75-2.514 17.353-6.642 6.622 8.076 12.639 16.613 17.815 25.753-6.897 5.636-15.431 8.889-24.167 8.889-21.569 0-39.791-18.158-39.791-39.651 0-4.82.988-9.556 2.8-13.979zm81.974 41.745l.226-.115-.212.124zm272.226 98.318c-85.653 22.423-154.362 53.159-214.014 95.756-58.853-41.833-128.84-72.573-217.986-95.769v-110.42c0-34.76 8.28-68.687 24.082-99.208 10.769 9.973 22.125 19.437 33.424 28.806-14.176 14.483-22.506 33.959-22.506 54.75 0 21.105 8.366 41.068 23.557 56.21 15.165 15.116 35.136 23.441 56.234 23.441 15.822 0 31.242-5.056 44.223-13.998l56.986 97.691 56.986-97.691c12.981 8.942 28.401 13.998 44.223 13.998 21.098 0 41.069-8.325 56.234-23.441 15.191-15.142 23.557-35.104 23.557-56.21 0-20.791-8.33-40.267-22.506-54.75 11.299-9.369 22.655-18.833 33.424-28.806 15.802 30.52 24.082 64.448 24.082 99.208zM158.322 109.801c12.644-8.483 26.187-15.219 40.364-20.111 19.616 15.132 38.716 32.82 57.477 53.225 18.761-20.405 37.861-38.094 57.477-53.225 14.177 4.892 27.72 11.628 40.364 20.111-28.397 19.373-55.713 44.618-82.597 76.269l-15.244 17.947-15.244-17.947c-26.884-31.651-54.2-56.896-82.597-76.269z" data-original="#000000" class="active-path" data-old_color="#000000" fill="#FFF"/></svg>